Coordinates
version=1
nRows=4
nColumns=63
inDegrees=yes

Units are S.I. units (second, meters, Newtons, ...)
If the header above contains a line with 'inDegrees', this indicates whether rotational values are in degrees (yes) or radians (no).

endheader
time	pelvis_tilt	pelvis_list	pelvis_rotation	pelvis_tx	pelvis_ty	pelvis_tz	hip_flexion_r	hip_adduction_r	hip_rotation_r	knee_angle_r	knee_angle_r_beta	ankle_angle_r	subtalar_angle_r	mtp_angle_r	hip_flexion_l	hip_adduction_l	hip_rotation_l	knee_angle_l	knee_angle_l_beta	ankle_angle_l	subtalar_angle_l	mtp_angle_l	L5_S1_Flex_Ext	L5_S1_Lat_Bending	L5_S1_axial_rotation	L4_L5_Flex_Ext	L4_L5_Lat_Bending	L4_L5_axial_rotation	L3_L4_Flex_Ext	L3_L4_Lat_Bending	L3_L4_axial_rotation	L2_L3_Flex_Ext	L2_L3_Lat_Bending	L2_L3_axial_rotation	L1_L2_Flex_Ext	L1_L2_Lat_Bending	L1_L2_axial_rotation	L1_T12_Flex_Ext	L1_T12_Lat_Bending	L1_T12_axial_rotation	Abs_r3	Abs_r2	Abs_r1	Abs_t1	Abs_t2	neck_flexion	neck_bending	neck_rotation	arm_flex_r	arm_add_r	arm_rot_r	elbow_flex_r	pro_sup_r	wrist_flex_r	wrist_dev_r	arm_flex_l	arm_add_l	arm_rot_l	elbow_flex_l	pro_sup_l	wrist_flex_l	wrist_dev_l
      4.80000000	      2.51946160	     -2.78409518	   -178.06334262	      2.48843262	      0.89314660	      0.78902057	     13.80609019	     -6.02647573	    -12.92792879	     26.71769948	      0.46631182	     23.69334500	      0.25746357	      0.00000000	      7.03041176	      0.87576489	     -9.81592436	     13.06125644	      0.22796193	     17.65702636	     -2.43384947	      0.00000000	      0.00277080	     -0.43245739	      0.13239931	      0.00514565	     -0.57516833	      0.14067427	      0.00455214	     -1.05147689	      0.14067427	      0.00316674	     -1.05147689	      0.11584940	      0.00257296	     -0.88186711	      0.10757444	      0.00158323	     -0.66987649	      0.09929949	      0.01979153	     -4.89204446	      0.73636527	      0.00000000	      0.00000000	      0.00000000	      0.00000000	     -0.00000000	     -7.71010152	     -7.98664489	     36.67944341	     21.12965877	     69.47342064	      0.00000000	      5.00000014	    -11.84882468	     -8.11089500	     32.81297608	     23.91599652	     35.05484443	      0.00000000	      5.00000014
      4.83333333	      2.45888893	     -2.85951547	   -178.09516052	      2.48815558	      0.89322963	      0.78887127	     13.69301966	     -6.16809011	    -13.46432285	     26.71177333	      0.46620839	     23.64776049	      0.61073160	      0.00000000	      6.79960952	      1.15301008	     -8.44303223	     12.62705120	      0.22038362	     17.15478481	     -4.72315913	      0.00000000	      0.00205915	     -0.44895063	      0.10370835	      0.00382404	     -0.59710434	      0.11019012	      0.00338297	     -1.09157857	      0.11019012	      0.00235340	     -1.09157857	      0.09074480	      0.00191212	     -0.91550013	      0.08426303	      0.00117660	     -0.69542453	      0.07778126	      0.01470828	     -5.07861935	      0.57679472	      0.00000000	      0.00000000	      0.00000000	      0.00000000	     -0.00000000	     -6.67251302	     -8.73588955	     44.13517700	     20.99585512	     69.74640278	      0.00000000	      5.00000014	    -12.25205469	     -7.88390417	     30.54341049	     24.22687928	     34.85123202	      0.00000000	      5.00000014
      4.86666667	      2.48081056	     -2.99404966	   -178.27744058	      2.48833107	      0.89315780	      0.78854340	     13.80673101	     -6.28716511	    -13.35080164	     26.78679057	      0.46751769	     23.50867556	      0.57690783	      0.00000000	      6.88089672	      1.18920878	     -9.39686938	     12.71246300	      0.22187434	     17.49758559	     -3.76300157	      0.00000000	      0.00202160	     -0.46584105	      0.12213651	      0.00375431	     -0.61956860	      0.12977004	      0.00332128	     -1.13264593	      0.12977004	      0.00231048	     -1.13264593	      0.10686945	      0.00187726	     -0.94994307	      0.09923591	      0.00115514	     -0.72158779	      0.09160238	      0.01444007	     -5.26968714	      0.67928662	      0.00000000	      0.00000000	      0.00000000	      0.00000000	     -0.00000000	     -6.67180911	     -8.62179358	     44.09719769	     20.82530250	     66.94398680	      0.00000000	      5.00000014	    -12.24654516	     -7.88076175	     30.01810497	     24.34122522	     35.75189226	      0.00000000	      5.00000014
      4.90000000	      2.55129739	     -3.16415030	   -178.46751061	      2.48885667	      0.89299514	      0.78848061	     14.07809529	     -6.50939144	    -13.17060614	     27.01809857	      0.47155478	     23.50343153	      0.79795072	      0.00000000	      7.08590186	      1.35170124	     -9.75132389	     12.85435389	      0.22435080	     17.60099267	     -3.67154885	      0.00000000	      0.00133232	     -0.48182697	      0.14811985	      0.00247425	     -0.64082986	      0.15737734	      0.00218887	     -1.17151409	      0.15737734	      0.00152271	     -1.17151409	      0.12960487	      0.00123719	     -0.98254155	      0.12034738	      0.00076129	     -0.74634997	      0.11108989	      0.00951663	     -5.45052301	      0.82379815	      0.00000000	      0.00000000	      0.00000000	      0.00000000	     -0.00000000	     -6.59275759	     -8.55170506	     44.02649942	     20.65660092	     66.70523792	      0.00000000	      5.00000014	    -12.09714662	     -7.73808278	     29.62253151	     24.22003336	     35.85751568	      0.00000000	      5.00000014
